<?xml version="1.0" encoding="UTF-8"?>
<svg xmlns="http://www.w3.org/2000/svg" viewBox="0 0 750 550" width="750" height="550">
  <rect width="750" height="550" fill="#f8fafc"/>
  
  <text x="375" y="25" font-family="Arial, sans-serif" font-size="16" font-weight="bold" fill="#1e293b" text-anchor="middle">CreditAssist Underwriter Workflow</text>
  <text x="375" y="42" font-family="Arial, sans-serif" font-size="10" fill="#64748b" text-anchor="middle">100% Human-in-the-Loop for CRITICAL Risk</text>
  
  <rect x="277" y="57" width="200" height="35" rx="6" fill="#374151"/>
  <rect x="275" y="55" width="200" height="35" rx="6" fill="#64748b"/>
  <text x="375" y="77" font-family="Arial, sans-serif" font-size="11" font-weight="bold" fill="white" text-anchor="middle">Application Received</text>
  
  <line x1="375" y1="90" x2="375" y2="120" stroke="#94a3b8" stroke-width="2"/>
  <polygon points="375,125 370,115 380,115" fill="#94a3b8"/>
  
  <rect x="277" y="132" width="200" height="45" rx="6" fill="#1e40af"/>
  <rect x="275" y="130" width="200" height="45" rx="6" fill="#3b82f6"/>
  <text x="375" y="153" font-family="Arial, sans-serif" font-size="11" font-weight="bold" fill="white" text-anchor="middle">Pre-Judge Validation</text>
  <text x="375" y="167" font-family="Arial, sans-serif" font-size="9" fill="#dbeafe" text-anchor="middle">Data quality, manipulation check</text>
  
  <line x1="475" y1="152" x2="575" y2="152" stroke="#ef4444" stroke-width="2"/>
  <polygon points="580,152 570,147 570,157" fill="#ef4444"/>
  <rect x="582" y="137" width="120" height="35" rx="6" fill="#b91c1c"/>
  <rect x="580" y="135" width="120" height="35" rx="6" fill="#ef4444"/>
  <text x="640" y="157" font-family="Arial, sans-serif" font-size="10" font-weight="bold" fill="white" text-anchor="middle">Return to Intake</text>
  <text x="525" y="145" font-family="Arial, sans-serif" font-size="8" fill="#ef4444">REJECT</text>
  
  <line x1="375" y1="175" x2="375" y2="200" stroke="#94a3b8" stroke-width="2"/>
  <polygon points="375,205 370,195 380,195" fill="#94a3b8"/>
  <text x="390" y="192" font-family="Arial, sans-serif" font-size="8" fill="#10b981">PROCEED</text>
  
  <rect x="277" y="212" width="200" height="45" rx="6" fill="#5b21b6"/>
  <rect x="275" y="210" width="200" height="45" rx="6" fill="#8b5cf6"/>
  <text x="375" y="233" font-family="Arial, sans-serif" font-size="11" font-weight="bold" fill="white" text-anchor="middle">AI Risk Assessment</text>
  <text x="375" y="247" font-family="Arial, sans-serif" font-size="9" fill="#ede9fe" text-anchor="middle">GPT-4 analysis generated</text>
  
  <line x1="375" y1="255" x2="375" y2="280" stroke="#94a3b8" stroke-width="2"/>
  <polygon points="375,285 370,275 380,275" fill="#94a3b8"/>
  
  <rect x="277" y="292" width="200" height="45" rx="6" fill="#1e40af"/>
  <rect x="275" y="290" width="200" height="45" rx="6" fill="#3b82f6"/>
  <text x="375" y="313" font-family="Arial, sans-serif" font-size="11" font-weight="bold" fill="white" text-anchor="middle">Post-Judge Validation</text>
  <text x="375" y="327" font-family="Arial, sans-serif" font-size="9" fill="#dbeafe" text-anchor="middle">Fair lending, explainability check</text>
  
  <line x1="475" y1="312" x2="575" y2="312" stroke="#ef4444" stroke-width="2"/>
  <polygon points="580,312 570,307 570,317" fill="#ef4444"/>
  <rect x="582" y="297" width="120" height="35" rx="6" fill="#b91c1c"/>
  <rect x="580" y="295" width="120" height="35" rx="6" fill="#ef4444"/>
  <text x="640" y="313" font-family="Arial, sans-serif" font-size="9" font-weight="bold" fill="white" text-anchor="middle">Regenerate/</text>
  <text x="640" y="323" font-family="Arial, sans-serif" font-size="9" font-weight="bold" fill="white" text-anchor="middle">Manual Review</text>
  <text x="525" y="305" font-family="Arial, sans-serif" font-size="8" fill="#ef4444">REJECT</text>
  
  <line x1="375" y1="335" x2="375" y2="360" stroke="#94a3b8" stroke-width="2"/>
  <polygon points="375,365 370,355 380,355" fill="#94a3b8"/>
  <text x="390" y="352" font-family="Arial, sans-serif" font-size="8" fill="#10b981">APPROVE</text>
  
  <rect x="77" y="372" width="600" height="130" rx="8" fill="#047857"/>
  <rect x="75" y="370" width="600" height="130" rx="8" fill="#10b981"/>
  <text x="375" y="395" font-family="Arial, sans-serif" font-size="13" font-weight="bold" fill="white" text-anchor="middle">UNDERWRITER REVIEW (100% HITL)</text>
  
  <rect x="95" y="405" width="280" height="80" rx="4" fill="#059669"/>
  <text x="235" y="423" font-family="Arial, sans-serif" font-size="10" font-weight="bold" fill="white" text-anchor="middle">AI Recommendation</text>
  <text x="110" y="440" font-family="Arial, sans-serif" font-size="9" fill="#d1fae5">APPROVE at 6.5% APR (87% confidence)</text>
  <text x="110" y="455" font-family="Arial, sans-serif" font-size="9" fill="#d1fae5">+ Credit score: 742  + DTI: 32%</text>
  <text x="110" y="470" font-family="Arial, sans-serif" font-size="9" fill="#d1fae5">- Recent inquiry  - Self-employed</text>
  
  <rect x="395" y="415" width="260" height="60" rx="4" fill="#059669"/>
  <text x="525" y="433" font-family="Arial, sans-serif" font-size="10" font-weight="bold" fill="white" text-anchor="middle">Underwriter Actions</text>
  <text x="525" y="453" font-family="Arial, sans-serif" font-size="8" fill="#d1fae5" text-anchor="middle">[AGREE+APPROVE] [AGREE+DENY] [MODIFY]</text>
  <text x="525" y="467" font-family="Arial, sans-serif" font-size="8" fill="#d1fae5" text-anchor="middle">[DISAGREE] [ESCALATE]</text>
  
  <line x1="375" y1="500" x2="375" y2="515" stroke="#94a3b8" stroke-width="2"/>
  <polygon points="375,520 370,510 380,510" fill="#94a3b8"/>
  
  <rect x="252" y="527" width="250" height="25" rx="6" fill="#0f172a"/>
  <rect x="250" y="525" width="250" height="25" rx="6" fill="#1e293b"/>
  <text x="375" y="542" font-family="Arial, sans-serif" font-size="10" font-weight="bold" fill="white" text-anchor="middle">Final Decision (Human Made) - Logged</text>
</svg>
