<?xml version="1.0" encoding="UTF-8"?>
<svg xmlns="http://www.w3.org/2000/svg" width="720" height="520" viewBox="0 0 720 520" font-family="'Segoe UI', Arial, Helvetica, sans-serif">
  <defs>
    <marker id="arrow" markerWidth="8" markerHeight="6" refX="8" refY="3" orient="auto">
      <path d="M0,0 L8,3 L0,6 Z" fill="#334155"/>
    </marker>
    <marker id="arrow-green" markerWidth="8" markerHeight="6" refX="8" refY="3" orient="auto">
      <path d="M0,0 L8,3 L0,6 Z" fill="#16a34a"/>
    </marker>
    <marker id="arrow-red" markerWidth="8" markerHeight="6" refX="8" refY="3" orient="auto">
      <path d="M0,0 L8,3 L0,6 Z" fill="#dc2626"/>
    </marker>
    <marker id="arrow-blue" markerWidth="8" markerHeight="6" refX="8" refY="3" orient="auto">
      <path d="M0,0 L8,3 L0,6 Z" fill="#1e40af"/>
    </marker>
    <marker id="arrow-amber" markerWidth="8" markerHeight="6" refX="8" refY="3" orient="auto">
      <path d="M0,0 L8,3 L0,6 Z" fill="#b45309"/>
    </marker>
  </defs>
  <rect width="720" height="520" fill="#ffffff"/>
  <text x="360" y="30" text-anchor="middle" font-size="20" font-weight="700" fill="#0f172a">Stage 3: Governance Gate</text>
  <text x="360" y="48" text-anchor="middle" font-size="12" fill="#64748b">CI/CD — determines whether deployment requires human review</text>
  <rect x="80" y="60" width="560" height="310" rx="8" fill="#ffffff" stroke="#854d0e" stroke-width="1.5"/>
  <path d="M88,60 L632,60 Q640,60 640,68 L640,88 L80,88 L80,68 Q80,60 88,60 Z" fill="#854d0e"/>
  <text x="360" y="79" text-anchor="middle" font-size="13" font-weight="700" fill="#ffffff">Governance Gate</text>
  <text x="100" y="112" text-anchor="start" font-size="12" font-weight="700" fill="#0f172a">New declaration?</text>
  <text x="120" y="129" text-anchor="start" font-size="11" font-weight="400" fill="#64748b">Low/Medium →</text>
  <text x="340" y="129" text-anchor="start" font-size="11" font-weight="600" fill="#16a34a">Auto-approve</text>
  <text x="120" y="146" text-anchor="start" font-size="11" font-weight="400" fill="#64748b">High/Critical →</text>
  <text x="340" y="146" text-anchor="start" font-size="11" font-weight="600" fill="#b45309">Require review</text>
  <text x="100" y="168" text-anchor="start" font-size="12" font-weight="700" fill="#0f172a">Material change?</text>
  <text x="120" y="185" text-anchor="start" font-size="11" font-weight="400" fill="#64748b">No (any tier) →</text>
  <text x="340" y="185" text-anchor="start" font-size="11" font-weight="600" fill="#16a34a">Auto-approve</text>
  <text x="120" y="202" text-anchor="start" font-size="11" font-weight="400" fill="#64748b">Yes, Low/Medium →</text>
  <text x="340" y="202" text-anchor="start" font-size="11" font-weight="600" fill="#16a34a">Auto-approve</text>
  <text x="120" y="219" text-anchor="start" font-size="11" font-weight="400" fill="#64748b">Yes, High/Critical →</text>
  <text x="340" y="219" text-anchor="start" font-size="11" font-weight="600" fill="#b45309">Require review</text>
  <text x="100" y="241" text-anchor="start" font-size="12" font-weight="700" fill="#0f172a">Non-material change?</text>
  <text x="120" y="258" text-anchor="start" font-size="11" font-weight="400" fill="#64748b">All tiers →</text>
  <text x="340" y="258" text-anchor="start" font-size="11" font-weight="600" fill="#16a34a">Auto-approve</text>
  <text x="100" y="280" text-anchor="start" font-size="12" font-weight="700" fill="#0f172a">New guardrail overrides?</text>
  <text x="120" y="297" text-anchor="start" font-size="11" font-weight="400" fill="#64748b">New overrides →</text>
  <text x="340" y="297" text-anchor="start" font-size="11" font-weight="600" fill="#b45309">Require review</text>
  <text x="120" y="314" text-anchor="start" font-size="11" font-weight="400" fill="#64748b">Existing, unchanged →</text>
  <text x="340" y="314" text-anchor="start" font-size="11" font-weight="600" fill="#16a34a">Auto-approve</text>
  <line x1="260" y1="370" x2="260" y2="395" stroke="#334155" stroke-width="1.5" marker-end="url(#arrow)"/>
  <rect x="160" y="395" width="200" height="48" rx="6" fill="#f0fdf4" stroke="#86efac" stroke-width="1"/>
  <text x="260" y="415" text-anchor="middle" font-size="12" font-weight="700" fill="#166534">Auto-approve</text>
  <text x="260" y="430" text-anchor="middle" font-size="10" font-weight="400" fill="#4ade80">Continue to deploy</text>
  <line x1="460" y1="370" x2="460" y2="395" stroke="#334155" stroke-width="1.5" marker-end="url(#arrow)"/>
  <rect x="360" y="395" width="200" height="48" rx="6" fill="#fffbeb" stroke="#fcd34d" stroke-width="1"/>
  <text x="460" y="415" text-anchor="middle" font-size="12" font-weight="700" fill="#854d0e">Require review</text>
  <text x="460" y="430" text-anchor="middle" font-size="10" font-weight="400" fill="#d97706">Notify governance (48h SLA)</text>
</svg>