<?xml version="1.0" encoding="UTF-8"?>
<svg xmlns="http://www.w3.org/2000/svg" width="760" height="480" viewBox="0 0 760 480" font-family="'Segoe UI', Arial, Helvetica, sans-serif">
  <defs>
    <marker id="arrow" markerWidth="8" markerHeight="6" refX="8" refY="3" orient="auto">
      <path d="M0,0 L8,3 L0,6 Z" fill="#334155"/>
    </marker>
    <marker id="arrow-green" markerWidth="8" markerHeight="6" refX="8" refY="3" orient="auto">
      <path d="M0,0 L8,3 L0,6 Z" fill="#16a34a"/>
    </marker>
    <marker id="arrow-red" markerWidth="8" markerHeight="6" refX="8" refY="3" orient="auto">
      <path d="M0,0 L8,3 L0,6 Z" fill="#dc2626"/>
    </marker>
    <marker id="arrow-blue" markerWidth="8" markerHeight="6" refX="8" refY="3" orient="auto">
      <path d="M0,0 L8,3 L0,6 Z" fill="#1e40af"/>
    </marker>
    <marker id="arrow-amber" markerWidth="8" markerHeight="6" refX="8" refY="3" orient="auto">
      <path d="M0,0 L8,3 L0,6 Z" fill="#b45309"/>
    </marker>
  </defs>
  <rect width="760" height="480" fill="#ffffff"/>
  <text x="380" y="28" text-anchor="middle" font-size="20" font-weight="700" fill="#0f172a">Credit Decisioning Pipeline — Data Flow</text>
  <text x="380" y="46" text-anchor="middle" font-size="12" fill="#64748b">Critical tier · Customer-facing · Financial PII</text>
  <rect x="200.0" y="50" width="361.5" height="22" rx="4" fill="#fef2f2" stroke="#fca5a5" stroke-width="1"/>
  <text x="380" y="64" text-anchor="middle" font-size="9.5" font-weight="500" fill="#991b1b">Application Schema Validation → REJECT if malformed</text>
  <line x1="380" y1="72" x2="380" y2="76" stroke="#cbd5e1" stroke-width="1.5"/>
  <rect x="281.0" y="76" width="199.0" height="22" rx="4" fill="#ffffff" stroke="#cbd5e1" stroke-width="1"/>
  <text x="380" y="90" text-anchor="middle" font-size="9.5" font-weight="500" fill="#334155">PII Tagging and Encryption</text>
  <line x1="380" y1="98" x2="380" y2="102" stroke="#cbd5e1" stroke-width="1.5"/>
  <rect x="232.0" y="102" width="296.5" height="22" rx="4" fill="#ffffff" stroke="#cbd5e1" stroke-width="1"/>
  <text x="380" y="116" text-anchor="middle" font-size="9.5" font-weight="500" fill="#334155">Input Sanitisation (document attachments)</text>
  <line x1="380" y1="124" x2="380" y2="128" stroke="#cbd5e1" stroke-width="1.5"/>
  <rect x="284.0" y="128" width="192.5" height="22" rx="4" fill="#ffffff" stroke="#cbd5e1" stroke-width="1"/>
  <text x="380" y="142" text-anchor="middle" font-size="9.5" font-weight="500" fill="#334155">Protected Class Stripping</text>
  <line x1="380" y1="150" x2="380" y2="154" stroke="#cbd5e1" stroke-width="1.5"/>
  <rect x="226.0" y="154" width="309.5" height="22" rx="4" fill="#ffffff" stroke="#cbd5e1" stroke-width="1"/>
  <text x="380" y="168" text-anchor="middle" font-size="9.5" font-weight="500" fill="#334155">Credit Bureau Data Retrieval (external API)</text>
  <line x1="380" y1="176" x2="380" y2="180" stroke="#cbd5e1" stroke-width="1.5"/>
  <rect x="164.0" y="180" width="433.0" height="22" rx="4" fill="#ffffff" stroke="#cbd5e1" stroke-width="1"/>
  <text x="380" y="194" text-anchor="middle" font-size="9.5" font-weight="500" fill="#334155">Model Inference (risk narrative + recommendation + confidence)</text>
  <line x1="380" y1="202" x2="380" y2="206" stroke="#cbd5e1" stroke-width="1.5"/>
  <rect x="209.0" y="206" width="342.0" height="22" rx="4" fill="#fef2f2" stroke="#fca5a5" stroke-width="1"/>
  <text x="380" y="220" text-anchor="middle" font-size="9.5" font-weight="500" fill="#991b1b">Output Schema Enforcement → REJECT if off-schema</text>
  <line x1="380" y1="228" x2="380" y2="232" stroke="#cbd5e1" stroke-width="1.5"/>
  <rect x="157.0" y="232" width="446.0" height="22" rx="4" fill="#fffbeb" stroke="#fcd34d" stroke-width="1"/>
  <text x="380" y="246" text-anchor="middle" font-size="9.5" font-weight="500" fill="#854d0e">Confidence Floor Check → SUPPRESS if &lt; 0.7 → Manual underwriting</text>
  <line x1="380" y1="254" x2="380" y2="258" stroke="#cbd5e1" stroke-width="1.5"/>
  <rect x="196.0" y="258" width="368.0" height="22" rx="4" fill="#fef2f2" stroke="#fca5a5" stroke-width="1"/>
  <text x="380" y="272" text-anchor="middle" font-size="9.5" font-weight="500" fill="#991b1b">Protected Class Proxy Scan → BLOCK if proxy detected</text>
  <line x1="380" y1="280" x2="380" y2="284" stroke="#cbd5e1" stroke-width="1.5"/>
  <rect x="242.0" y="284" width="277.0" height="22" rx="4" fill="#f5f3ff" stroke="#c4b5fd" stroke-width="1"/>
  <text x="380" y="298" text-anchor="middle" font-size="9.5" font-weight="500" fill="#7c3aed">Judge Evaluation (INLINE, SYNCHRONOUS)</text>
  <line x1="380" y1="306" x2="380" y2="310" stroke="#cbd5e1" stroke-width="1.5"/>
  <rect x="170.0" y="310" width="420.0" height="22" rx="4" fill="#f5f3ff" stroke="#c4b5fd" stroke-width="1"/>
  <text x="380" y="324" text-anchor="middle" font-size="9.5" font-weight="500" fill="#7c3aed">Block → Manual underwriting | Flag → Warnings | Pass → Clean</text>
  <line x1="380" y1="332" x2="380" y2="336" stroke="#cbd5e1" stroke-width="1.5"/>
  <rect x="154.0" y="336" width="452.5" height="22" rx="4" fill="#fff7ed" stroke="#fdba74" stroke-width="1"/>
  <text x="380" y="350" text-anchor="middle" font-size="9.5" font-weight="500" fill="#b45309">Secure Audit Log (full: application, model I/O, Judge assessment)</text>
  <line x1="380" y1="358" x2="380" y2="362" stroke="#cbd5e1" stroke-width="1.5"/>
  <rect x="190.0" y="362" width="381.0" height="22" rx="4" fill="#eff6ff" stroke="#93c5fd" stroke-width="1"/>
  <text x="380" y="376" text-anchor="middle" font-size="9.5" font-weight="500" fill="#1e40af">Human Review → Decision recorded with full audit trail</text>
  <line x1="380" y1="384" x2="380" y2="388" stroke="#cbd5e1" stroke-width="1.5"/>
  <rect x="229.0" y="388" width="303.0" height="22" rx="4" fill="#eff6ff" stroke="#93c5fd" stroke-width="1"/>
  <text x="380" y="402" text-anchor="middle" font-size="9.5" font-weight="500" fill="#1e40af">If override: documented rationale required</text>
  <line x1="380" y1="410" x2="380" y2="414" stroke="#cbd5e1" stroke-width="1.5"/>
  <rect x="222.0" y="414" width="316.0" height="22" rx="4" fill="#f0fdf4" stroke="#86efac" stroke-width="1"/>
  <text x="380" y="428" text-anchor="middle" font-size="9.5" font-weight="500" fill="#166534">Decision returned to Loan Origination System</text>
</svg>