<?xml version="1.0" encoding="UTF-8"?>
<svg xmlns="http://www.w3.org/2000/svg" width="760" height="324" viewBox="0 0 760 324" font-family="'Segoe UI', Arial, Helvetica, sans-serif">
  <defs>
    <marker id="arrow" markerWidth="8" markerHeight="6" refX="8" refY="3" orient="auto">
      <path d="M0,0 L8,3 L0,6 Z" fill="#334155"/>
    </marker>
    <marker id="arrow-green" markerWidth="8" markerHeight="6" refX="8" refY="3" orient="auto">
      <path d="M0,0 L8,3 L0,6 Z" fill="#16a34a"/>
    </marker>
    <marker id="arrow-red" markerWidth="8" markerHeight="6" refX="8" refY="3" orient="auto">
      <path d="M0,0 L8,3 L0,6 Z" fill="#dc2626"/>
    </marker>
    <marker id="arrow-blue" markerWidth="8" markerHeight="6" refX="8" refY="3" orient="auto">
      <path d="M0,0 L8,3 L0,6 Z" fill="#1e40af"/>
    </marker>
    <marker id="arrow-amber" markerWidth="8" markerHeight="6" refX="8" refY="3" orient="auto">
      <path d="M0,0 L8,3 L0,6 Z" fill="#b45309"/>
    </marker>
  </defs>
  <rect width="760" height="324" fill="#ffffff"/>
  <text x="380" y="28" text-anchor="middle" font-size="20" font-weight="700" fill="#0f172a">Developer Sandbox — Data Flow</text>
  <text x="380" y="46" text-anchor="middle" font-size="12" fill="#64748b">Low tier · Internal · No production data</text>
  <rect x="161.0" y="50" width="439.5" height="22" rx="4" fill="#fffbeb" stroke="#fcd34d" stroke-width="1"/>
  <text x="380" y="64" text-anchor="middle" font-size="9.5" font-weight="500" fill="#854d0e">PII Input Scanner → WARN if PII pattern detected (do not block)</text>
  <line x1="380" y1="72" x2="380" y2="76" stroke="#cbd5e1" stroke-width="1.5"/>
  <rect x="209.0" y="76" width="342.0" height="22" rx="4" fill="#fef2f2" stroke="#fca5a5" stroke-width="1"/>
  <text x="380" y="90" text-anchor="middle" font-size="9.5" font-weight="500" fill="#991b1b">Spend Check → BLOCK if daily/monthly cap reached</text>
  <line x1="380" y1="98" x2="380" y2="102" stroke="#cbd5e1" stroke-width="1.5"/>
  <rect x="326.0" y="102" width="108.0" height="22" rx="4" fill="#ffffff" stroke="#cbd5e1" stroke-width="1"/>
  <text x="380" y="116" text-anchor="middle" font-size="9.5" font-weight="500" fill="#334155">Rate Limiter</text>
  <line x1="380" y1="124" x2="380" y2="128" stroke="#cbd5e1" stroke-width="1.5"/>
  <rect x="222.0" y="128" width="316.0" height="22" rx="4" fill="#ffffff" stroke="#cbd5e1" stroke-width="1"/>
  <text x="380" y="142" text-anchor="middle" font-size="9.5" font-weight="500" fill="#334155">Model API Call (any model provider or local)</text>
  <line x1="380" y1="150" x2="380" y2="154" stroke="#cbd5e1" stroke-width="1.5"/>
  <rect x="268.0" y="154" width="225.0" height="22" rx="4" fill="#f0fdf4" stroke="#86efac" stroke-width="1"/>
  <text x="380" y="168" text-anchor="middle" font-size="9.5" font-weight="500" fill="#166534">Response returned to developer</text>
  <line x1="380" y1="176" x2="380" y2="180" stroke="#cbd5e1" stroke-width="1.5"/>
  <rect x="154.0" y="180" width="452.5" height="22" rx="4" fill="#fff7ed" stroke="#fdba74" stroke-width="1"/>
  <text x="380" y="194" text-anchor="middle" font-size="9.5" font-weight="500" fill="#b45309">Log: metadata only (user, model, tokens, timestamp, PII warnings)</text>
  <line x1="380" y1="202" x2="380" y2="206" stroke="#cbd5e1" stroke-width="1.5"/>
  <rect x="304.0" y="206" width="153.5" height="22" rx="4" fill="#ffffff" stroke="#cbd5e1" stroke-width="1"/>
  <text x="380" y="220" text-anchor="middle" font-size="9.5" font-weight="500" fill="#334155">No Judge evaluation</text>
  <line x1="380" y1="228" x2="380" y2="232" stroke="#cbd5e1" stroke-width="1.5"/>
  <rect x="252.0" y="232" width="257.5" height="22" rx="4" fill="#ffffff" stroke="#cbd5e1" stroke-width="1"/>
  <text x="380" y="246" text-anchor="middle" font-size="9.5" font-weight="500" fill="#334155">Monthly spot checks on PII warnings</text>
  <line x1="380" y1="254" x2="380" y2="258" stroke="#cbd5e1" stroke-width="1.5"/>
  <rect x="274.0" y="258" width="212.0" height="22" rx="4" fill="#ffffff" stroke="#cbd5e1" stroke-width="1"/>
  <text x="380" y="272" text-anchor="middle" font-size="9.5" font-weight="500" fill="#334155">Quarterly environment review</text>
</svg>