<?xml version="1.0" encoding="UTF-8"?>
<svg xmlns="http://www.w3.org/2000/svg" width="760" height="402" viewBox="0 0 760 402" font-family="'Segoe UI', Arial, Helvetica, sans-serif">
  <defs>
    <marker id="arrow" markerWidth="8" markerHeight="6" refX="8" refY="3" orient="auto">
      <path d="M0,0 L8,3 L0,6 Z" fill="#334155"/>
    </marker>
    <marker id="arrow-green" markerWidth="8" markerHeight="6" refX="8" refY="3" orient="auto">
      <path d="M0,0 L8,3 L0,6 Z" fill="#16a34a"/>
    </marker>
    <marker id="arrow-red" markerWidth="8" markerHeight="6" refX="8" refY="3" orient="auto">
      <path d="M0,0 L8,3 L0,6 Z" fill="#dc2626"/>
    </marker>
    <marker id="arrow-blue" markerWidth="8" markerHeight="6" refX="8" refY="3" orient="auto">
      <path d="M0,0 L8,3 L0,6 Z" fill="#1e40af"/>
    </marker>
    <marker id="arrow-amber" markerWidth="8" markerHeight="6" refX="8" refY="3" orient="auto">
      <path d="M0,0 L8,3 L0,6 Z" fill="#b45309"/>
    </marker>
  </defs>
  <rect width="760" height="402" fill="#ffffff"/>
  <text x="380" y="28" text-anchor="middle" font-size="20" font-weight="700" fill="#0f172a">Document Processing Pipeline — Data Flow</text>
  <text x="380" y="46" text-anchor="middle" font-size="12" fill="#64748b">High tier · Internal · Customer PII</text>
  <rect x="216.0" y="50" width="329.0" height="22" rx="4" fill="#fef2f2" stroke="#fca5a5" stroke-width="1"/>
  <text x="380" y="64" text-anchor="middle" font-size="9.5" font-weight="500" fill="#991b1b">Document Type Classifier → REJECT unknown type</text>
  <line x1="380" y1="72" x2="380" y2="76" stroke="#cbd5e1" stroke-width="1.5"/>
  <rect x="232.0" y="76" width="296.5" height="22" rx="4" fill="#ffffff" stroke="#cbd5e1" stroke-width="1"/>
  <text x="380" y="90" text-anchor="middle" font-size="9.5" font-weight="500" fill="#334155">Input Sanitisation (strip active content)</text>
  <line x1="380" y1="98" x2="380" y2="102" stroke="#cbd5e1" stroke-width="1.5"/>
  <rect x="190.0" y="102" width="381.0" height="22" rx="4" fill="#ffffff" stroke="#cbd5e1" stroke-width="1"/>
  <text x="380" y="116" text-anchor="middle" font-size="9.5" font-weight="500" fill="#334155">Extraction Model (structured data + confidence scores)</text>
  <line x1="380" y1="124" x2="380" y2="128" stroke="#cbd5e1" stroke-width="1.5"/>
  <rect x="193.0" y="128" width="374.5" height="22" rx="4" fill="#fef2f2" stroke="#fca5a5" stroke-width="1"/>
  <text x="380" y="142" text-anchor="middle" font-size="9.5" font-weight="500" fill="#991b1b">Output Schema Validation → REJECT if schema violation</text>
  <line x1="380" y1="150" x2="380" y2="154" stroke="#cbd5e1" stroke-width="1.5"/>
  <rect x="161.0" y="154" width="439.5" height="22" rx="4" fill="#fffbeb" stroke="#fcd34d" stroke-width="1"/>
  <text x="380" y="168" text-anchor="middle" font-size="9.5" font-weight="500" fill="#854d0e">Confidence Check → Flag fields below threshold for human review</text>
  <line x1="380" y1="176" x2="380" y2="180" stroke="#cbd5e1" stroke-width="1.5"/>
  <rect x="248.0" y="180" width="264.0" height="22" rx="4" fill="#ffffff" stroke="#cbd5e1" stroke-width="1"/>
  <text x="380" y="194" text-anchor="middle" font-size="9.5" font-weight="500" fill="#334155">PII Tagging and Boundary Enforcement</text>
  <line x1="380" y1="202" x2="380" y2="206" stroke="#cbd5e1" stroke-width="1.5"/>
  <rect x="281.0" y="206" width="199.0" height="22" rx="4" fill="#f0fdf4" stroke="#86efac" stroke-width="1"/>
  <text x="380" y="220" text-anchor="middle" font-size="9.5" font-weight="500" fill="#166534">Route to downstream system</text>
  <line x1="380" y1="228" x2="380" y2="232" stroke="#cbd5e1" stroke-width="1.5"/>
  <rect x="265.0" y="232" width="231.5" height="22" rx="4" fill="#fff7ed" stroke="#fdba74" stroke-width="1"/>
  <text x="380" y="246" text-anchor="middle" font-size="9.5" font-weight="500" fill="#b45309">Log (with PII redacted in logs)</text>
  <line x1="380" y1="254" x2="380" y2="258" stroke="#cbd5e1" stroke-width="1.5"/>
  <rect x="235.0" y="258" width="290.0" height="22" rx="4" fill="#f5f3ff" stroke="#c4b5fd" stroke-width="1"/>
  <text x="380" y="272" text-anchor="middle" font-size="9.5" font-weight="500" fill="#7c3aed">30% sampled for Judge evaluation (async)</text>
  <line x1="380" y1="280" x2="380" y2="284" stroke="#cbd5e1" stroke-width="1.5"/>
  <rect x="187.0" y="284" width="387.5" height="22" rx="4" fill="#f5f3ff" stroke="#c4b5fd" stroke-width="1"/>
  <text x="380" y="298" text-anchor="middle" font-size="9.5" font-weight="500" fill="#7c3aed">Judge compares extracted fields against source document</text>
  <line x1="380" y1="306" x2="380" y2="310" stroke="#cbd5e1" stroke-width="1.5"/>
  <rect x="190.0" y="310" width="381.0" height="22" rx="4" fill="#eff6ff" stroke="#93c5fd" stroke-width="1"/>
  <text x="380" y="324" text-anchor="middle" font-size="9.5" font-weight="500" fill="#1e40af">High/Critical → Escalate to reviewer → IR if warranted</text>
  <line x1="380" y1="332" x2="380" y2="336" stroke="#cbd5e1" stroke-width="1.5"/>
  <rect x="252.0" y="336" width="257.5" height="22" rx="4" fill="#ffffff" stroke="#cbd5e1" stroke-width="1"/>
  <text x="380" y="350" text-anchor="middle" font-size="9.5" font-weight="500" fill="#334155">Medium/Low → Queue for trend review</text>
</svg>