<?xml version="1.0" encoding="UTF-8"?>
<svg xmlns="http://www.w3.org/2000/svg" viewBox="0 0 500 320" width="500" height="320">
  <rect width="500" height="320" fill="#f8fafc"/>
  
  <text x="250" y="25" font-family="Arial, sans-serif" font-size="14" font-weight="bold" fill="#1e293b" text-anchor="middle">HITL Escalation Path</text>
  
  <rect x="152" y="47" width="200" height="35" rx="6" fill="#b45309"/>
  <rect x="150" y="45" width="200" height="35" rx="6" fill="#f59e0b"/>
  <text x="250" y="68" font-family="Arial, sans-serif" font-size="11" font-weight="bold" fill="white" text-anchor="middle">Judge flags for review</text>
  
  <line x1="250" y1="80" x2="250" y2="105" stroke="#94a3b8" stroke-width="2"/>
  <polygon points="250,110 245,100 255,100" fill="#94a3b8"/>
  
  <rect x="152" y="117" width="200" height="45" rx="6" fill="#1e40af"/>
  <rect x="150" y="115" width="200" height="45" rx="6" fill="#3b82f6"/>
  <text x="250" y="138" font-family="Arial, sans-serif" font-size="11" font-weight="bold" fill="white" text-anchor="middle">Tier 1 Analyst</text>
  <text x="250" y="152" font-family="Arial, sans-serif" font-size="9" fill="#dbeafe" text-anchor="middle">SLA: 2 minutes</text>
  
  <line x1="350" y1="137" x2="395" y2="137" stroke="#10b981" stroke-width="2"/>
  <polygon points="400,137 390,132 390,142" fill="#10b981"/>
  <rect x="407" y="122" width="70" height="35" rx="6" fill="#047857"/>
  <rect x="405" y="120" width="70" height="35" rx="6" fill="#10b981"/>
  <text x="440" y="142" font-family="Arial, sans-serif" font-size="10" font-weight="bold" fill="white" text-anchor="middle">Resolve</text>
  <text x="372" y="130" font-family="Arial, sans-serif" font-size="8" fill="#10b981">Yes</text>
  
  <line x1="250" y1="160" x2="250" y2="185" stroke="#94a3b8" stroke-width="2"/>
  <polygon points="250,190 245,180 255,180" fill="#94a3b8"/>
  <text x="265" y="177" font-family="Arial, sans-serif" font-size="8" fill="#64748b">No</text>
  
  <rect x="152" y="197" width="200" height="45" rx="6" fill="#5b21b6"/>
  <rect x="150" y="195" width="200" height="45" rx="6" fill="#8b5cf6"/>
  <text x="250" y="218" font-family="Arial, sans-serif" font-size="11" font-weight="bold" fill="white" text-anchor="middle">Tier 2 Specialist</text>
  <text x="250" y="232" font-family="Arial, sans-serif" font-size="9" fill="#ede9fe" text-anchor="middle">SLA: 15 minutes</text>
  
  <line x1="350" y1="217" x2="395" y2="217" stroke="#10b981" stroke-width="2"/>
  <polygon points="400,217 390,212 390,222" fill="#10b981"/>
  <rect x="407" y="202" width="70" height="35" rx="6" fill="#047857"/>
  <rect x="405" y="200" width="70" height="35" rx="6" fill="#10b981"/>
  <text x="440" y="222" font-family="Arial, sans-serif" font-size="10" font-weight="bold" fill="white" text-anchor="middle">Resolve</text>
  <text x="372" y="210" font-family="Arial, sans-serif" font-size="8" fill="#10b981">Yes</text>
  
  <line x1="250" y1="240" x2="250" y2="265" stroke="#94a3b8" stroke-width="2"/>
  <polygon points="250,270 245,260 255,260" fill="#94a3b8"/>
  <text x="265" y="257" font-family="Arial, sans-serif" font-size="8" fill="#64748b">No</text>
  
  <rect x="152" y="277" width="200" height="35" rx="6" fill="#b91c1c"/>
  <rect x="150" y="275" width="200" height="35" rx="6" fill="#ef4444"/>
  <text x="250" y="297" font-family="Arial, sans-serif" font-size="11" font-weight="bold" fill="white" text-anchor="middle">Security Team (SLA: 1 hour)</text>
</svg>
