<?xml version="1.0" encoding="UTF-8"?>
<svg xmlns="http://www.w3.org/2000/svg" width="840" height="500" viewBox="0 0 840 500" font-family="'Segoe UI', Arial, Helvetica, sans-serif">
  <defs>
    <marker id="arrow" markerWidth="8" markerHeight="6" refX="8" refY="3" orient="auto">
      <path d="M0,0 L8,3 L0,6 Z" fill="#334155"/>
    </marker>
    <marker id="arrow-green" markerWidth="8" markerHeight="6" refX="8" refY="3" orient="auto">
      <path d="M0,0 L8,3 L0,6 Z" fill="#16a34a"/>
    </marker>
    <marker id="arrow-red" markerWidth="8" markerHeight="6" refX="8" refY="3" orient="auto">
      <path d="M0,0 L8,3 L0,6 Z" fill="#dc2626"/>
    </marker>
    <marker id="arrow-blue" markerWidth="8" markerHeight="6" refX="8" refY="3" orient="auto">
      <path d="M0,0 L8,3 L0,6 Z" fill="#1e40af"/>
    </marker>
    <marker id="arrow-amber" markerWidth="8" markerHeight="6" refX="8" refY="3" orient="auto">
      <path d="M0,0 L8,3 L0,6 Z" fill="#b45309"/>
    </marker>
  </defs>
  <rect width="840" height="500" fill="#ffffff"/>
  <text x="420" y="28" text-anchor="middle" font-size="20" font-weight="700" fill="#0f172a">System Onboarding Process</text>
  <text x="420" y="46" text-anchor="middle" font-size="12" fill="#64748b">From Intent Declaration to calibrated production</text>
  <circle cx="230" cy="72" r="14" fill="#1e40af"/>
  <text x="230" y="77" text-anchor="middle" font-size="12" font-weight="700" fill="#ffffff">1</text>
  <text x="255" y="69" text-anchor="start" font-size="12" font-weight="600" fill="#0f172a">Developer completes Intent Declaration</text>
  <text x="255" y="87" text-anchor="start" font-size="10" font-weight="400" fill="#64748b">Reviewed by governance for completeness</text>
  <line x1="230" y1="87" x2="230" y2="102" stroke="#1e40af" stroke-width="1.5" stroke-dasharray="4,3"/>
  <circle cx="230" cy="130" r="14" fill="#334155"/>
  <text x="230" y="135" text-anchor="middle" font-size="12" font-weight="700" fill="#ffffff">2</text>
  <text x="255" y="127" text-anchor="start" font-size="12" font-weight="600" fill="#0f172a">Tier determined automatically</text>
  <text x="255" y="145" text-anchor="start" font-size="10" font-weight="400" fill="#64748b">Developer notified of resulting tier</text>
  <line x1="230" y1="145" x2="230" y2="160" stroke="#334155" stroke-width="1.5" stroke-dasharray="4,3"/>
  <circle cx="230" cy="188" r="14" fill="#991b1b"/>
  <text x="230" y="193" text-anchor="middle" font-size="12" font-weight="700" fill="#ffffff">3</text>
  <text x="255" y="185" text-anchor="start" font-size="12" font-weight="600" fill="#0f172a">Guardrails configured from declaration</text>
  <text x="255" y="203" text-anchor="start" font-size="10" font-weight="400" fill="#64748b">Developer reviews derived guardrails for accuracy</text>
  <line x1="230" y1="203" x2="230" y2="218" stroke="#991b1b" stroke-width="1.5" stroke-dasharray="4,3"/>
  <circle cx="230" cy="246" r="14" fill="#7c3aed"/>
  <text x="230" y="251" text-anchor="middle" font-size="12" font-weight="700" fill="#ffffff">4</text>
  <text x="255" y="243" text-anchor="start" font-size="12" font-weight="600" fill="#0f172a">Remaining controls applied per tier</text>
  <text x="255" y="261" text-anchor="start" font-size="10" font-weight="400" fill="#64748b">Judge sampling, HITL, logging, IR integration</text>
  <line x1="230" y1="261" x2="230" y2="276" stroke="#7c3aed" stroke-width="1.5" stroke-dasharray="4,3"/>
  <circle cx="230" cy="304" r="14" fill="#166534"/>
  <text x="230" y="309" text-anchor="middle" font-size="12" font-weight="700" fill="#ffffff">5</text>
  <text x="255" y="301" text-anchor="start" font-size="12" font-weight="600" fill="#0f172a">Deploy to production</text>
  <text x="255" y="319" text-anchor="start" font-size="10" font-weight="400" fill="#64748b">Guardrails enforcing from day one</text>
  <line x1="230" y1="319" x2="230" y2="334" stroke="#166534" stroke-width="1.5" stroke-dasharray="4,3"/>
  <circle cx="230" cy="362" r="14" fill="#b45309"/>
  <text x="230" y="367" text-anchor="middle" font-size="12" font-weight="700" fill="#ffffff">6</text>
  <text x="255" y="359" text-anchor="start" font-size="12" font-weight="600" fill="#0f172a">First 90-day review</text>
  <text x="255" y="377" text-anchor="start" font-size="10" font-weight="400" fill="#64748b">Calibrate thresholds, amend declaration if needed</text>
  <rect x="500" y="268" width="200" height="50" rx="6" fill="#f5f3ff" stroke="#c4b5fd" stroke-width="1"/>
  <text x="600" y="288" text-anchor="middle" font-size="10" font-weight="600" fill="#7c3aed">Judge in calibration mode</text>
  <text x="600" y="302" text-anchor="middle" font-size="10" font-weight="400" fill="#a78bfa">for first 90 days</text>
  <rect x="500" y="330" width="200" height="36" rx="6" fill="#fff7ed" stroke="#fdba74" stroke-width="1"/>
  <text x="600" y="353" text-anchor="middle" font-size="10" font-weight="600" fill="#b45309">First monthly chargeback report</text>
</svg>