<?xml version="1.0" encoding="UTF-8"?>
<svg xmlns="http://www.w3.org/2000/svg" width="900" height="340" viewBox="0 0 900 340" font-family="'Segoe UI', Arial, Helvetica, sans-serif">
  <defs>
    <marker id="arrow" markerWidth="8" markerHeight="6" refX="8" refY="3" orient="auto">
      <path d="M0,0 L8,3 L0,6 Z" fill="#334155"/>
    </marker>
    <marker id="arrow-green" markerWidth="8" markerHeight="6" refX="8" refY="3" orient="auto">
      <path d="M0,0 L8,3 L0,6 Z" fill="#16a34a"/>
    </marker>
    <marker id="arrow-red" markerWidth="8" markerHeight="6" refX="8" refY="3" orient="auto">
      <path d="M0,0 L8,3 L0,6 Z" fill="#dc2626"/>
    </marker>
    <marker id="arrow-blue" markerWidth="8" markerHeight="6" refX="8" refY="3" orient="auto">
      <path d="M0,0 L8,3 L0,6 Z" fill="#1e40af"/>
    </marker>
    <marker id="arrow-amber" markerWidth="8" markerHeight="6" refX="8" refY="3" orient="auto">
      <path d="M0,0 L8,3 L0,6 Z" fill="#b45309"/>
    </marker>
  </defs>
  <rect width="900" height="340" fill="#ffffff"/>
  <text x="450" y="28" text-anchor="middle" font-size="20" font-weight="700" fill="#0f172a">Platform SDK Flow</text>
  <text x="450" y="46" text-anchor="middle" font-size="12" fill="#64748b">Developer integrates via SDK — guardrails and Judge run as platform services</text>
  <rect x="20" y="105" width="90" height="30" rx="15" fill="#eff6ff" stroke="#93c5fd" stroke-width="1"/>
  <text x="65" y="125" text-anchor="middle" font-size="10" font-weight="600" fill="#1e40af">Developer</text>
  <line x1="110" y1="120" x2="145" y2="120" stroke="#334155" stroke-width="1.5" marker-end="url(#arrow)"/>
  <rect x="150" y="100" width="100" height="40" rx="6" fill="#f8fafc" stroke="#334155" stroke-width="1.5"/>
  <text x="200" y="125" text-anchor="middle" font-size="10" font-weight="600" fill="#0f172a">Platform SDK</text>
  <line x1="250" y1="120" x2="285" y2="120" stroke="#334155" stroke-width="1.5" marker-end="url(#arrow)"/>
  <rect x="290" y="95" width="110" height="50" rx="6" fill="#fef2f2" stroke="#fca5a5" stroke-width="1"/>
  <text x="345" y="115" text-anchor="middle" font-size="10" font-weight="600" fill="#991b1b">Input</text>
  <text x="345" y="130" text-anchor="middle" font-size="10" font-weight="600" fill="#991b1b">Guardrails</text>
  <line x1="400" y1="120" x2="435" y2="120" stroke="#334155" stroke-width="1.5" marker-end="url(#arrow)"/>
  <rect x="440" y="95" width="100" height="50" rx="6" fill="#f0fdf4" stroke="#86efac" stroke-width="1"/>
  <text x="490" y="115" text-anchor="middle" font-size="10" font-weight="600" fill="#166534">Model</text>
  <text x="490" y="130" text-anchor="middle" font-size="10" font-weight="600" fill="#166534">Inference</text>
  <line x1="540" y1="120" x2="575" y2="120" stroke="#334155" stroke-width="1.5" marker-end="url(#arrow)"/>
  <rect x="580" y="95" width="110" height="50" rx="6" fill="#fef2f2" stroke="#fca5a5" stroke-width="1"/>
  <text x="635" y="115" text-anchor="middle" font-size="10" font-weight="600" fill="#991b1b">Output</text>
  <text x="635" y="130" text-anchor="middle" font-size="10" font-weight="600" fill="#991b1b">Guardrails</text>
  <line x1="690" y1="120" x2="725" y2="120" stroke="#334155" stroke-width="1.5" marker-end="url(#arrow)"/>
  <rect x="730" y="105" width="80" height="30" rx="15" fill="#f1f5f9" stroke="#94a3b8" stroke-width="1"/>
  <text x="770" y="125" text-anchor="middle" font-size="10" font-weight="600" fill="#475569">Response</text>
  <line x1="635" y1="145" x2="635" y2="175" stroke="#334155" stroke-width="1.5"/>
  <line x1="635" y1="175" x2="635" y2="175" stroke="#334155" stroke-width="1.5" marker-end="url(#arrow)"/>
  <rect x="560" y="175" width="150" height="30" rx="6" fill="#fff7ed" stroke="#fdba74" stroke-width="1"/>
  <text x="635" y="195" text-anchor="middle" font-size="9" font-weight="600" fill="#b45309">Logging (platform service)</text>
  <line x1="635" y1="205" x2="635" y2="230" stroke="#334155" stroke-width="1.5" marker-end="url(#arrow)"/>
  <rect x="555" y="230" width="160" height="30" rx="6" fill="#f5f3ff" stroke="#c4b5fd" stroke-width="1"/>
  <text x="635" y="250" text-anchor="middle" font-size="9" font-weight="600" fill="#7c3aed">Judge (async, platform service)</text>
  <line x1="635" y1="260" x2="635" y2="285" stroke="#334155" stroke-width="1.5" marker-end="url(#arrow)"/>
  <rect x="560" y="285" width="150" height="30" rx="6" fill="#eff6ff" stroke="#93c5fd" stroke-width="1"/>
  <text x="635" y="305" text-anchor="middle" font-size="9" font-weight="600" fill="#1e40af">Findings Dashboard</text>
  <line x1="635" y1="315" x2="635" y2="340" stroke="#334155" stroke-width="1.5" marker-end="url(#arrow)"/>
  <rect x="580" y="340" width="110" height="26" rx="13" fill="#eff6ff" stroke="#93c5fd" stroke-width="1"/>
  <text x="635" y="358" text-anchor="middle" font-size="9" font-weight="600" fill="#1e40af">Human Review</text>
  <rect x="280" y="48" width="440" height="22" rx="4" fill="#f8fafc" stroke="#e2e8f0" stroke-width="1"/>
  <text x="500" y="63" text-anchor="middle" font-size="10" font-weight="400" fill="#94a3b8">Platform Services (independent team)</text>
</svg>