<?xml version="1.0" encoding="UTF-8"?>
<svg xmlns="http://www.w3.org/2000/svg" width="900" height="420" viewBox="0 0 900 420" font-family="'Segoe UI', Arial, Helvetica, sans-serif">
  <defs>
    <marker id="arrow" markerWidth="8" markerHeight="6" refX="8" refY="3" orient="auto">
      <path d="M0,0 L8,3 L0,6 Z" fill="#334155"/>
    </marker>
    <marker id="arrow-green" markerWidth="8" markerHeight="6" refX="8" refY="3" orient="auto">
      <path d="M0,0 L8,3 L0,6 Z" fill="#16a34a"/>
    </marker>
    <marker id="arrow-red" markerWidth="8" markerHeight="6" refX="8" refY="3" orient="auto">
      <path d="M0,0 L8,3 L0,6 Z" fill="#dc2626"/>
    </marker>
    <marker id="arrow-blue" markerWidth="8" markerHeight="6" refX="8" refY="3" orient="auto">
      <path d="M0,0 L8,3 L0,6 Z" fill="#1e40af"/>
    </marker>
    <marker id="arrow-amber" markerWidth="8" markerHeight="6" refX="8" refY="3" orient="auto">
      <path d="M0,0 L8,3 L0,6 Z" fill="#b45309"/>
    </marker>
  </defs>
  <rect width="900" height="420" fill="#ffffff"/>
  <text x="450" y="28" text-anchor="middle" font-size="20" font-weight="700" fill="#0f172a">Risk Integration Model</text>
  <text x="450" y="46" text-anchor="middle" font-size="12" fill="#64748b">Framework provides data — other functions plug in and consume</text>
  <rect x="60" y="50" width="780" height="195" rx="8" fill="#f8fafc" stroke="#1e40af" stroke-width="1.5"/>
  <path d="M68,50 L832,50 Q840,50 840,58 L840,76 L60,76 L60,58 Q60,50 68,50 Z" fill="#1e40af"/>
  <text x="450" y="68" text-anchor="middle" font-size="13" font-weight="700" fill="#ffffff">AI Security Framework</text>
  <rect x="80" y="90" width="740" height="140" rx="6" fill="#ffffff" stroke="#e2e8f0" stroke-width="1"/>
  <text x="450" y="108" text-anchor="middle" font-size="12" font-weight="600" fill="#475569">Data and Control Point Outputs</text>
  <text x="100" y="126" text-anchor="start" font-size="10" font-weight="400" fill="#64748b">• Declaration registry (inventory, scope, data, tier)</text>
  <text x="470" y="126" text-anchor="start" font-size="10" font-weight="400" fill="#64748b">• Interaction logs (metadata or full, by tier)</text>
  <text x="100" y="143" text-anchor="start" font-size="10" font-weight="400" fill="#64748b">• Judge findings (severity, category, frequency)</text>
  <text x="470" y="143" text-anchor="start" font-size="10" font-weight="400" fill="#64748b">• Guardrail trigger logs (what was blocked and why)</text>
  <text x="100" y="160" text-anchor="start" font-size="10" font-weight="400" fill="#64748b">• Exception register (what was approved, by whom, until when)</text>
  <text x="470" y="160" text-anchor="start" font-size="10" font-weight="400" fill="#64748b">• Chargeback records (cost per system, per event type)</text>
  <text x="100" y="177" text-anchor="start" font-size="10" font-weight="400" fill="#64748b">• Change log (declaration changes, control changes)</text>
  <rect x="85" y="310" width="130" height="56" rx="6" fill="#ffffff" stroke="#7c3aed" stroke-width="1.5"/>
  <text x="150" y="332" text-anchor="middle" font-size="11" font-weight="600" fill="#0f172a">Model Risk</text>
  <text x="150" y="346" text-anchor="middle" font-size="11" font-weight="600" fill="#0f172a">Management</text>
  <line x1="150" y1="245" x2="150" y2="305" stroke="#334155" stroke-width="1.5" marker-end="url(#arrow)"/>
  <rect x="255" y="310" width="130" height="56" rx="6" fill="#ffffff" stroke="#b45309" stroke-width="1.5"/>
  <text x="320" y="332" text-anchor="middle" font-size="11" font-weight="600" fill="#0f172a">Operational</text>
  <text x="320" y="346" text-anchor="middle" font-size="11" font-weight="600" fill="#0f172a">Risk</text>
  <line x1="320" y1="245" x2="320" y2="305" stroke="#334155" stroke-width="1.5" marker-end="url(#arrow)"/>
  <rect x="425" y="310" width="130" height="56" rx="6" fill="#ffffff" stroke="#0369a1" stroke-width="1.5"/>
  <text x="490" y="332" text-anchor="middle" font-size="11" font-weight="600" fill="#0f172a">Data Privacy /</text>
  <text x="490" y="346" text-anchor="middle" font-size="11" font-weight="600" fill="#0f172a">Information Gov</text>
  <line x1="490" y1="245" x2="490" y2="305" stroke="#334155" stroke-width="1.5" marker-end="url(#arrow)"/>
  <rect x="595" y="310" width="130" height="56" rx="6" fill="#ffffff" stroke="#166534" stroke-width="1.5"/>
  <text x="660" y="332" text-anchor="middle" font-size="11" font-weight="600" fill="#0f172a">Information</text>
  <text x="660" y="346" text-anchor="middle" font-size="11" font-weight="600" fill="#0f172a">Security</text>
  <line x1="660" y1="245" x2="660" y2="305" stroke="#334155" stroke-width="1.5" marker-end="url(#arrow)"/>
  <rect x="765" y="310" width="130" height="56" rx="6" fill="#ffffff" stroke="#991b1b" stroke-width="1.5"/>
  <text x="830" y="332" text-anchor="middle" font-size="11" font-weight="600" fill="#0f172a">Compliance /</text>
  <text x="830" y="346" text-anchor="middle" font-size="11" font-weight="600" fill="#0f172a">Regulatory</text>
  <line x1="830" y1="245" x2="830" y2="305" stroke="#334155" stroke-width="1.5" marker-end="url(#arrow)"/>
  <text x="860" y="340" text-anchor="middle" font-size="16" font-weight="700" fill="#94a3b8">...</text>
</svg>